<svg width="772" height="649" viewBox="0 0 772 649" fill="none" xmlns="http://www.w3.org/2000/svg">
<path d="M543.54 519.64H512.54V276.1L486.8 274.81V196.44C473.11 186.57 435.37 161.35 411.43 145.36C401.86 138.97 392.96 133.02 385.74 128.16C376.88 134.16 364.74 142.31 351.74 151C329.31 166 297.23 187.43 284.61 196.49V274.81L258.87 276.1V519.64H227.87L228.21 267.78C229.32 262.49 232.72 246.4 249.94 245.55L253.61 245.37V182.37L258.29 177.81C262.78 173.44 282.16 160.24 334.51 125.27C352.42 113.27 368.75 102.39 376.85 96.7502L385.59 90.6602L394.4 96.6602C402.32 102.05 414.77 110.36 428.64 119.66C484.13 156.74 508.13 173.02 513.09 177.84L517.77 182.4V245.4L521.45 245.58C538.66 246.43 542.06 262.52 543.17 267.81L543.51 271.01L543.54 519.64Z" fill="white"/>
<path d="M423.62 39.3401C425.443 45.27 425.849 51.5449 424.805 57.6602C423.761 63.7756 421.297 69.5607 417.611 74.5504C413.924 79.5401 409.119 83.5952 403.58 86.3896C398.041 89.1839 391.924 90.6396 385.72 90.6396C379.516 90.6396 373.399 89.1839 367.86 86.3896C362.322 83.5952 357.516 79.5401 353.829 74.5504C350.143 69.5607 347.679 63.7756 346.635 57.6602C345.592 51.5449 345.997 45.27 347.82 39.3401C350.318 47.4418 355.346 54.5299 362.166 59.5649C368.987 64.5998 377.242 67.3165 385.72 67.3165C394.198 67.3165 402.453 64.5998 409.274 59.5649C416.095 54.5299 421.123 47.4418 423.62 39.3401V39.3401Z" fill="white"/>
<path d="M385.72 0L391.75 18.57H411.28L395.48 30.05L401.52 48.62L385.72 37.14L369.92 48.62L375.96 30.05L360.16 18.57H379.69L385.72 0Z" fill="white"/>
<path d="M693.54 392.02L686.19 422.85L721.49 420.66C709.87 444.48 684.02 497.32 671.49 521.72C664.33 521.02 656.86 520.66 649.26 520.66C603.69 520.66 550.94 532.92 492.26 557.13C502.52 551.2 513.07 545.7 523.8 540.68C536.394 534.796 549.288 529.579 562.43 525.05C589.684 515.542 617.826 508.801 646.43 504.93L656.98 503.45L674.62 420.87L679.56 397.61L700.15 300.92L675.86 307.92C668.79 309.92 660.67 312.22 651.77 314.72L648.93 315.52C623.58 322.62 592.04 331.45 559.78 341.29L557.03 342.13L557.09 373.96L562.09 372.41C598.03 361.28 633.57 351.34 657.09 344.76L659.98 343.94L631.72 476.45C607.37 480.287 583.362 486.045 559.92 493.67C536.98 501.125 514.692 510.453 493.28 521.56C438.09 550.2 402.52 583.89 385.72 602.09C368.92 583.89 333.35 550.2 278.21 521.56C256.798 510.455 234.509 501.127 211.57 493.67C188.111 486.045 164.087 480.287 139.72 476.45L111.5 343.93L114.4 344.75C137.91 351.33 173.45 361.27 209.4 372.4L214.4 373.95L214.46 342.12L211.72 341.28C179.47 331.45 147.94 322.62 122.55 315.5L119.72 314.71C110.82 312.21 102.72 309.94 95.63 307.91L71.34 300.91L91.49 395.55L96.87 420.87L114.51 503.44L125.07 504.92C153.675 508.793 181.817 515.537 209.07 525.05C222.219 529.589 235.12 534.816 247.72 540.71C258.45 545.71 269 551.23 279.26 557.16C220.55 532.95 167.8 520.69 122.26 520.69C114.66 520.69 107.19 521.05 100.03 521.75C87.5 497.35 61.65 444.51 50.03 420.69L85.33 422.88L77.9 392.02L0 387.33L11.31 410.61C11.81 411.61 65.41 522.18 78.13 545.37L83.26 554.69L93.72 553.07C103.171 551.663 112.715 550.977 122.27 551.02C228.53 551.02 360.27 629.83 381.81 645.36L385.72 648.02L389.72 645.27C411.22 629.78 542.91 551.02 649.17 551.02C658.725 550.977 668.269 551.662 677.72 553.07L688.22 554.72L693.36 545.4C705.92 522.48 759.66 411.69 760.16 410.66L771.48 387.36L693.54 392.02Z" fill="white"/>
</svg>
